#!OML:ASF E:\Style4\Style4.ASF
:FULLY-SPECIFIED
:DEGREES
3741
root 1.47238 16.5947 -0.9588 -3.27185 -27.9961 6.02706
lowerback 16.1755 0.816461 -4.67022
upperback 8.2821 0.271514 -0.358488
thorax -0.269439 -0.054465 2.21605
lowerneck 0.166561 -2.60647 -4.36237
upperneck 1.38158 -3.47473 0.860125
head 0.489216 -1.75494 0.970856
rclavicle 1.92821e-014 -1.59028e-014
rhumerus 26.6654 -15.7427 -54.719
rradius 111.933
rwrist 1.30622
rhand 2.27257 8.73871
rfingers 7.12502
rthumb 27.7652 -19.2307
lclavicle 1.92821e-014 -1.59028e-014
lhumerus 26.6222 10.0198 42.7748
lradius 118.259
lwrist 8.23328
lhand 1.14246 28.968
lfingers 7.12502
lthumb 26.6842 57.1069
rfemur -33.7501 13.3039 7.9999
rtibia 56.1515
rfoot -21.636 -6.26551
rtoes -22.3547
lfemur -23.8844 19.1917 -28.9101
ltibia 54.7844
lfoot -33.3055 16.9766
ltoes -9.49163
3742
root 1.4575 16.5621 -0.965888 -3.58728 -27.7898 6.08032
lowerback 16.3252 0.922095 -4.67034
upperback 8.45024 0.402033 -0.378438
thorax -0.177438 0.00490181 2.1737
lowerneck 0.235522 -2.74112 -4.39248
upperneck 1.27544 -3.65911 0.985426
head 0.453369 -1.84545 1.01567
rclavicle 6.55989e-015 -2.0276e-014
rhumerus 26.7271 -15.8393 -54.7701
rradius 112.077
rwrist 1.37839
rhand 2.43216 8.67895
rfingers 7.12502
rthumb 27.9178 -19.2658
lclavicle 6.55989e-015 -2.0276e-014
lhumerus 27.0073 9.84177 42.8956
lradius 118.119
lwrist 7.91132
lhand 0.985581 28.8109
lfingers 7.12502
lthumb 26.534 56.9726
rfemur -33.6659 13.2959 8.07779
rtibia 56.7171
rfoot -21.8606 -6.493
rtoes -22.463
lfemur -23.7525 18.9849 -28.821
ltibia 55.208
lfoot -33.7352 16.8282
ltoes -8.84965
3743
root 1.44212 16.5338 -0.97052 -3.93944 -27.6169 6.21197
lowerback 16.408 1.00829 -4.77039
upperback 8.63487 0.496331 -0.435596
thorax -0.029295 0.0422491 2.15445
lowerneck 0.279916 -2.83318 -4.28671
upperneck 1.18824 -3.78418 0.97677
head 0.420128 -1.90653 0.995431
rclavicle 1.64991e-014 -2.78299e-015
rhumerus 26.8276 -15.8575 -54.9313
rradius 112.284
rwrist 1.40018
rhand 2.55174 8.66379
rfingers 7.12502
rthumb 28.0321 -19.2623
lclavicle 1.64991e-014 -2.78299e-015
lhumerus 27.1248 9.90708 42.7998
lradius 118.244
lwrist 8.08209
lhand 0.76208 28.7073
lfingers 7.12502
lthumb 26.3201 56.9012
rfemur -33.5601 13.3342 8.06927
rtibia 57.2418
rfoot -22.0748 -6.67192
rtoes -22.547
lfemur -23.6118 18.8005 -28.8186
ltibia 55.6208
lfoot -33.8114 17.0538
ltoes -9.75522
3744
root 1.42734 16.5066 -0.975049 -4.22675 -27.4076 6.37036
lowerback 16.4328 1.06259 -4.8787
upperback 8.79999 0.551697 -0.493098
thorax 0.131297 0.06019 2.14603
lowerneck 0.326547 -2.89326 -4.30182
upperneck 1.10476 -3.86738 1.05638
head 0.391083 -1.94701 1.02379
rclavicle -7.15625e-015 -1.23246e-014
rhumerus 26.9474 -15.8585 -55.0886
rradius 112.483
rwrist 1.41346
rhand 2.57231 8.75577
rfingers 7.12502
rthumb 28.0518 -19.1671
lclavicle -7.15625e-015 -1.23246e-014
lhumerus 27.2661 9.98516 42.7239
lradius 118.398
lwrist 8.15763
lhand 0.501843 28.6827
lfingers 7.12502
lthumb 26.071 56.9135
rfemur -33.5261 13.338 8.01129
rtibia 57.7429
rfoot -22.2756 -6.81692
rtoes -22.5694
lfemur -23.5732 18.5731 -28.8863
ltibia 56.019
lfoot -33.4538 17.5705
ltoes -11.695
3745
root 1.41044 16.4768 -0.985419 -4.42857 -27.1432 6.41667
lowerback 16.4887 1.11255 -4.90248
upperback 8.95421 0.612387 -0.509973
thorax 0.263268 0.0836268 2.13176
lowerneck 0.380711 -2.97712 -4.40338
upperneck 0.99651 -3.98348 1.2441
head 0.358575 -2.00376 1.10107
rclavicle 8.15017e-015 -1.94809e-014
rhumerus 27.0827 -15.8896 -55.2273
rradius 112.706
rwrist 1.42033
rhand 2.72084 8.64366
rfingers 7.12502
rthumb 28.1938 -19.2559
lclavicle 8.15017e-015 -1.94809e-014
lhumerus 27.4918 10.0151 42.6869
lradius 118.539
lwrist 8.05459
lhand 0.280999 28.7959
lfingers 7.12502
lthumb 25.8595 57.0577
rfemur -33.5278 13.3489 8.06783
rtibia 58.2305
rfoot -22.502 -7.00191
rtoes -22.4331
lfemur -23.6055 18.2974 -28.846
ltibia 56.439
lfoot -33.3399 17.9063
ltoes -12.7682
3746
root 1.39151 16.4479 -0.997044 -4.62367 -26.8976 6.47839
lowerback 16.548 1.17239 -5.01692
upperback 9.1082 0.673724 -0.491627
thorax 0.393305 0.103228 2.20555
lowerneck 0.323024 -3.08336 -4.50588
upperneck 0.97414 -4.12329 1.35224
head 0.370319 -2.07333 1.15099
rclavicle 4.41302e-014 -1.35174e-014
rhumerus 27.3111 -15.8728 -55.3283
rradius 112.9
rwrist 1.41408
rhand 2.98539 8.51133
rfingers 7.12502
rthumb 28.4466 -19.3462
lclavicle 4.41302e-014 -1.35174e-014
lhumerus 27.4307 10.2115 42.7027
lradius 119.016
lwrist 8.35772
lhand 0.322434 28.9465
lfingers 7.12502
lthumb 25.8992 57.2026
rfemur -33.5363 13.3789 8.11775
rtibia 58.7131
rfoot -22.6668 -7.36173
rtoes -22.567
lfemur -23.6484 18.034 -28.8115
ltibia 56.8472
lfoot -33.5231 18.0438
ltoes -12.7437
3747
root 1.3732 16.4219 -1.00671 -4.8194 -26.6993 6.39552
lowerback 16.7006 1.25065 -4.96197
upperback 9.24997 0.776401 -0.456016
thorax 0.458306 0.150622 2.19482
lowerneck 0.260448 -3.21407 -4.54543
upperneck 0.989187 -4.295 1.42689
head 0.393432 -2.15906 1.1789
rclavicle 4.01545e-014 -2.0276e-014
rhumerus 27.4571 -15.9215 -55.4015
rradius 113.106
rwrist 1.34869
rhand 3.34315 8.45892
rfingers 7.12502
rthumb 28.7884 -19.341
lclavicle 4.01545e-014 -2.0276e-014
lhumerus 27.1301 10.4858 42.7199
lradius 119.778
lwrist 9.07318
lhand 0.666534 29.0414
lfingers 7.12502
lthumb 26.2286 57.2488
rfemur -33.4434 13.4824 8.33821
rtibia 59.1698
rfoot -22.7872 -7.81572
rtoes -22.9112
lfemur -23.6019 17.7784 -28.6172
ltibia 57.2361
lfoot -33.6434 18.1519
ltoes -12.4697
3748
root 1.35463 16.3968 -1.01473 -5.03244 -26.4693 6.41859
lowerback 16.8267 1.32382 -4.99257
upperback 9.35957 0.861467 -0.459733
thorax 0.504533 0.188493 2.19364
lowerneck 0.253587 -3.32127 -4.53648
upperneck 1.00051 -4.43803 1.50378
head 0.404281 -2.23032 1.20033
rclavicle -2.32578e-014 3.18055e-015
rhumerus 27.5386 -15.9243 -55.4589
rradius 113.3
rwrist 1.28309
rhand 3.59099 8.37531
rfingers 7.12502
rthumb 29.0251 -19.3841
lclavicle -2.32578e-014 3.18055e-015
lhumerus 27.2219 10.6805 42.6999
lradius 120.018
lwrist 9.50501
lhand 1.07369 29.0096
lfingers 7.12502
lthumb 26.6184 57.1585
rfemur -33.3868 13.5179 8.43778
rtibia 59.6235
rfoot -22.9662 -8.15681
rtoes -23.1942
lfemur -23.5402 17.4879 -28.5444
ltibia 57.5885
lfoot -33.7097 18.2673
ltoes -12.5619
3749
root 1.33686 16.3738 -1.02245 -5.25221 -26.1925 6.62273
lowerback 16.884 1.37974 -5.19459
upperback 9.42919 0.903709 -0.501869
thorax 0.547126 0.200804 2.25582
lowerneck 0.317629 -3.38819 -4.49732
upperneck 1.02179 -4.53014 1.51205
head 0.402271 -2.27653 1.19651
rclavicle -3.16068e-014 1.15295e-014
rhumerus 27.5845 -15.8945 -55.5199
rradius 113.526
rwrist 1.26906
rhand 3.97448 8.41098
rfingers 7.12502
rthumb 29.3913 -19.2848
lclavicle -3.16068e-014 1.15295e-014
lhumerus 27.7612 10.8569 42.6155
lradius 119.762
lwrist 9.70477
lhand 1.41661 28.9964
lfingers 7.12502
lthumb 26.9465 57.0951
rfemur -33.3924 13.4727 8.32116
rtibia 60.0739
rfoot -23.1967 -8.39718
rtoes -23.1414
lfemur -23.5461 17.1607 -28.6868
ltibia 57.9325
lfoot -33.8142 18.2249
ltoes -12.1169
3750
root 1.31942 16.3495 -1.0296 -5.35271 -25.9075 6.74962
lowerback 16.8588 1.40625 -5.30768
upperback 9.48188 0.92592 -0.539892
thorax 0.615733 0.206347 2.27621
lowerneck 0.362206 -3.47079 -4.44281
upperneck 1.05029 -4.64199 1.49816
head 0.405333 -2.33261 1.18254
rclavicle 5.32743e-014 -1.86858e-014
rhumerus 27.6464 -15.8634 -55.5645
rradius 113.749
rwrist 1.16595
rhand 4.36848 8.39491
rfingers 7.12502
rthumb 29.7674 -19.2342
lclavicle 5.32743e-014 -1.86858e-014
lhumerus 28.1164 11.1256 42.5158
lradius 119.683
lwrist 10.0889
lhand 1.59119 29.1594
lfingers 7.12502
lthumb 27.1136 57.2321
rfemur -33.4711 13.4355 8.25727
rtibia 60.5122
rfoot -23.3495 -8.7388
rtoes -23.1598
lfemur -23.6726 16.8671 -28.7951
ltibia 58.2965
lfoot -33.854 18.3686
ltoes -12.4475
3751
root 1.30037 16.3217 -1.04025 -5.35514 -25.5994 6.7248
lowerback 16.8229 1.42404 -5.31045
upperback 9.54681 0.954146 -0.536705
thorax 0.702154 0.217394 2.27716
lowerneck 0.38905 -3.56331 -4.3742
upperneck 0.960763 -4.7668 1.53992
head 0.376423 -2.39382 1.1845
rclavicle -1.11319e-014 9.93923e-015
rhumerus 27.7362 -15.8689 -55.5699
rradius 113.94
rwrist 1.09846
rhand 4.49707 8.56287
rfingers 7.12502
rthumb 29.8902 -19.0442
lclavicle -1.11319e-014 9.93923e-015
lhumerus 28.2798 11.35 42.4399
lradius 119.871
lwrist 10.5326
lhand 1.72032 29.3293
lfingers 7.12502
lthumb 27.2371 57.3827
rfemur -33.589 13.4055 8.35197
rtibia 60.9436
rfoot -23.5448 -9.07203
rtoes -23.39
lfemur -23.8901 16.5441 -28.7567
ltibia 58.6899
lfoot -33.9227 18.5532
ltoes -12.8332
3752
root 1.28207 16.2949 -1.05191 -5.3866 -25.2428 6.66728
lowerback 16.9111 1.42301 -5.2839
upperback 9.58513 0.953439 -0.505477
thorax 0.697491 0.217095 2.29452
lowerneck 0.378152 -3.63731 -4.37567
upperneck 0.928555 -4.86544 1.6107
head 0.373363 -2.4426 1.20645
rclavicle 3.77691e-014 -1.55052e-014
rhumerus 27.8588 -15.9218 -55.5554
rradius 114.239
rwrist 0.790316
rhand 4.96029 8.461
rfingers 7.12502
rthumb 30.3321 -19.0656
lclavicle 3.77691e-014 -1.55052e-014
lhumerus 28.4007 11.5301 42.3864
lradius 120.029
lwrist 10.9887
lhand 2.14096 29.2365
lfingers 7.12502
lthumb 27.6394 57.2262
rfemur -33.6293 13.2995 8.4842
rtibia 61.3434
rfoot -23.706 -9.37466
rtoes -23.5062
lfemur -24.042 16.1499 -28.6647
ltibia 59.0566
lfoot -33.9911 18.5501
ltoes -12.8165
3753
root 1.26334 16.2721 -1.05974 -5.47392 -24.9234 6.66466
lowerback 17.0377 1.44105 -5.32196
upperback 9.6122 0.965553 -0.46963
thorax 0.659815 0.221455 2.35062
lowerneck 0.345758 -3.71476 -4.42004
upperneck 0.936929 -4.96775 1.67992
head 0.387737 -2.49367 1.23433
rclavicle -6.0033e-014 2.94201e-014
rhumerus 28.0005 -16.0122 -55.4589
rradius 114.591
rwrist 0.232526
rhand 5.85921 8.08228
rfingers 7.12502
rthumb 31.1892 -19.283
lclavicle -6.0033e-014 2.94201e-014
lhumerus 28.5596 11.6593 42.3581
lradius 120.126
lwrist 11.4214
lhand 2.84587 29.1188
lfingers 7.12502
lthumb 28.3133 56.9986
rfemur -33.5948 13.2157 8.57207
rtibia 61.7092
rfoot -23.8708 -9.7062
rtoes -23.4762
lfemur -24.0772 15.8489 -28.6014
ltibia 59.3565
lfoot -34.1249 18.4182
ltoes -12.4642
